<svg xmlns="http://www.w3.org/2000/svg" version="1.1" xmlns:xlink="http://www.w3.org/1999/xlink" xmlns:svgjs="http://svgjs.dev/svgjs" width="1000" height="1125" viewBox="0 0 1000 1125"><g transform="matrix(1,0,0,1,1.7053025658242404e-13,0)"><svg viewBox="0 0 320 360" data-background-color="#ffffff" preserveAspectRatio="xMidYMid meet" height="1125" width="1000" xmlns="http://www.w3.org/2000/svg" xmlns:xlink="http://www.w3.org/1999/xlink"><g id="tight-bounds" transform="matrix(1,0,0,1,0,0)"><svg viewBox="0 0 320 360" height="360" width="320"><g><svg></svg></g><g><svg viewBox="0 0 320 360" height="360" width="320"><g><path xmlns="http://www.w3.org/2000/svg" d="M20.961 227.22l3.726 4.658-1.863-6.056c-0.466-2.795-3.726 0.466-1.863 1.398M25.153 224.425c1.397 2.329 2.795 4.658 2.795 6.987 0 3.261 2.795 4.658 5.123 5.589-3.261-3.726-5.124-13.974-7.918-12.576M204.017 26.929c7.918 0 15.371-0.932 23.756 0.931 20.495 5.124 37.729 15.371 49.374 29.811l32.606 52.169c1.397 13.042 4.192 27.482 3.726 43.319 3.261 0 2.795-4.658 6.521-5.59-3.726 9.316-5.59 20.961-6.521 34.469-2.329-7.453 0-18.632 0.466-24.687-3.261 5.124-5.124 1.397-5.124-0.932 0.466-3.726-1.397-3.261-2.795-4.658-5.124-4.658-8.384-9.782-12.11-17.7 2.329-6.055 2.795-14.905-4.658-19.563-2.329-1.397-5.124-3.726-6.521-7.453-1.863-5.124-5.124-11.179-4.193-19.097 0.466-2.329-6.987 5.124-11.179 1.863-18.166-12.576-36.332-27.016-58.224-39.127-11.645 0-20.029-4.192-24.221-9.316-3.726-4.658-0.932-10.713 4.658-11.179 3.261 0 6.987-0.932 9.782 0.932 0.466-1.863 2.329-4.192 4.657-4.192M157.904 16.215l0.932 0.466c4.658 0.932 6.987 7.453 12.11 5.124 0 3.261 0.466 6.521-0.466 8.85-1.397 3.726-5.59 3.726-8.85 3.726-31.208-1.863-49.374 11.179-68.471 22.358-5.124 3.261-10.713 5.59-14.906 9.782-20.029 18.632-41.921 35.866-47.045 70.335l-4.192 38.195c-0.466 4.192-5.124 8.384-4.192 13.508l3.26 22.824c-3.261-3.261-5.124 0.932-4.192 2.795 0.466 1.397 2.329 6.055 5.124 1.863 3.726 6.987 7.453 20.495 12.576 26.55 15.837 18.632 36.332 35.4 53.101 52.169 4.192-0.932 7.453-0.932 8.384-3.727 1.397 2.795-1.397 5.59-3.726 6.056 7.453 4.658 15.837 8.85 27.016 9.781 14.44 0.932 27.948 3.261 40.524 6.522 6.521-1.863 13.042-2.795 20.029-3.261 2.329 0 3.726-3.726 6.521-4.658l0.466-4.658c2.795 4.192 2.329-1.397 0.466-4.192 3.261 2.795 4.192 5.124 5.589 6.987 0-1.397 3.726-6.521 3.727-0.466l0.931-6.055c1.397-0.932 1.863 5.124 3.261 0.931 1.397-4.192 4.192-0.932 6.987-2.329-0.932 1.863-0.466 5.59 2.794 3.261l3.727-3.261c2.329 5.59 6.055 3.261 7.918 2.329 20.495-13.042 40.99-28.413 60.553-43.784l-0.466 6.055 2.329-7.453c2.329 2.329 4.192 0.466 5.124-0.931 2.795-4.658 6.521-9.316 12.577-13.508-7.453 20.029-16.303 35.866-27.482 48.908l-4.658 5.59c0 3.261-0.932 7.453-4.658 7.918-1.863 0.466-5.59-0.932-8.384 1.863-1.397 1.863 3.261 5.59-0.466 2.795-3.261-2.329-6.521 0-10.248 0.932-2.795 0.932 1.863 3.726 2.795 5.589 0.932 1.863 1.863 3.726 1.398 6.056l-5.124-5.59c-6.055 3.261-9.782 9.316-14.906 13.974-2.329 1.863-1.397 5.124-1.397 7.918-3.261 0-6.987-0.932-8.85 0.932-1.397 1.863-0.932 4.658-0.932 7.453-4.658-0.466-5.124-7.453-9.315-6.056-4.192 0.932-8.85 1.397-12.577 3.727 2.795 5.59-4.658 2.329-3.726 3.26-6.987-4.192-13.042-7.453-20.495-4.658-15.837-5.124-35.4-2.795-49.84-0.931 0-2.329 0.466-4.658-0.466-5.124-0.932 2.329-3.726 1.397-3.26 1.397-8.85-6.055-17.7-9.782-27.016-14.905-8.384 0.932-16.303-3.261-18.632-5.59-6.521-6.055-13.974-2.795-20.029-4.192-13.042-3.261-17.7-16.769-19.098-26.084-0.932-4.658-4.658-6.521-6.055-6.056-6.055-19.563-15.371-37.263-22.824-55.429-1.863-4.658-1.397-9.316-1.397-14.44 2.329 0.932 4.658 0.466 4.192-2.794-2.329-15.371-7.918-27.016-13.974-38.195 3.261-15.837 3.726-34.469 11.179-48.443 6.521-12.576 18.632-19.098 27.016-29.811 2.795-3.726 2.795-8.85 5.59-12.11 9.316-9.316 18.632-19.098 28.879-27.482 4.658-3.726 10.247 0 17.234-1.397 2.329-8.384 11.645-15.837 20.495-13.508 3.726 0.932 11.179-8.85 13.508-9.782 3.726-1.397 1.863 3.726 1.863 6.987 8.85-6.987 20.961-10.713 32.14-14.906" fill="#424242" fill-rule="nonzero" stroke="none" stroke-width="1" stroke-linecap="butt" stroke-linejoin="miter" stroke-miterlimit="10" stroke-dasharray="" stroke-dashoffset="0" font-family="none" font-weight="none" font-size="none" text-anchor="none" style="mix-blend-mode: normal" data-fill-palette-color="tertiary"></path></g><g transform="matrix(1,0,0,1,64,149.48396322778345)"><svg viewBox="0 0 192 61.03207354443309" height="61.03207354443309" width="192"><g><svg viewBox="0 0 192 61.03207354443309" height="61.03207354443309" width="192"><g><svg viewBox="0 0 192 61.03207354443309" height="61.03207354443309" width="192"><g><svg viewBox="0 0 192 61.03207354443309" height="61.03207354443309" width="192"><g id="textblocktransform"><svg viewBox="0 0 192 61.03207354443309" height="61.03207354443309" width="192" id="textblock"><g><svg viewBox="0 0 192 61.03207354443309" height="61.03207354443309" width="192"><g transform="matrix(1,0,0,1,0,0)"><svg width="192" viewBox="2.9100000858306885 -37.5 119.48999786376953 37.9900016784668" height="61.03207354443309" data-palette-color="#374151"><path d="M25.56-11.28L30.3-11.28Q29.93-7.93 28.37-5.26 26.81-2.59 23.95-1.05 21.09 0.49 16.8 0.49L16.8 0.49Q12.62 0.49 9.5-1.55 6.37-3.59 4.64-7.3 2.91-11.01 2.91-15.97L2.91-15.97 2.91-19.56Q2.91-24.54 4.65-28.23 6.4-31.93 9.62-33.98 12.84-36.04 17.24-36.04L17.24-36.04Q21.26-36.04 24.05-34.53 26.83-33.03 28.38-30.35 29.93-27.66 30.3-24.15L30.3-24.15 25.56-24.15Q25.02-27.88 23.18-30.04 21.34-32.2 17.24-32.2L17.24-32.2Q14.09-32.2 11.96-30.63 9.84-29.05 8.75-26.22 7.67-23.39 7.67-19.6L7.67-19.6 7.67-15.97Q7.67-12.48 8.64-9.61 9.62-6.74 11.63-5.03 13.65-3.32 16.8-3.32L16.8-3.32Q19.8-3.32 21.57-4.27 23.34-5.22 24.26-7.01 25.17-8.79 25.56-11.28L25.56-11.28ZM47.07-26.42L47.07-22.97 32.76-22.97 32.76-26.42 47.07-26.42ZM37.57-32.84L42.14-32.84 42.14-6.54Q42.14-5.18 42.55-4.49 42.97-3.81 43.63-3.59 44.28-3.37 45.04-3.37L45.04-3.37Q45.6-3.37 46.23-3.47 46.85-3.56 47.14-3.64L47.14-3.64 47.17 0Q46.63 0.17 45.76 0.33 44.89 0.49 43.67 0.49L43.67 0.49Q42.01 0.49 40.62-0.17 39.23-0.83 38.4-2.38 37.57-3.93 37.57-6.57L37.57-6.57 37.57-32.84ZM56.88-22.27L56.88 0 52.31 0 52.31-26.42 56.76-26.42 56.88-22.27ZM65.11-26.56L65.11-22.39Q64.52-22.51 64.02-22.55 63.52-22.58 62.89-22.58L62.89-22.58Q60.81-22.58 59.38-21.73 57.95-20.87 57.17-19.37 56.39-17.87 56.2-15.94L56.2-15.94 54.9-15.21Q54.9-18.41 55.76-21.06 56.61-23.71 58.43-25.31 60.25-26.9 63.11-26.9L63.11-26.9Q63.57-26.9 64.22-26.79 64.86-26.68 65.11-26.56L65.11-26.56ZM74.21-37.5L74.21 0 69.65 0 69.65-37.5 74.21-37.5ZM107.7-32.42L95.96 0 91.08 0 104.65-35.55 107.78-35.55 107.7-32.42ZM117.54 0L105.75-32.42 105.7-35.55 108.8-35.55 122.4 0 117.54 0ZM116.96-13.13L116.96-9.3 96.96-9.3 96.96-13.13 116.96-13.13Z" opacity="1" transform="matrix(1,0,0,1,0,0)" fill="#BDBDBD" class="wordmark-text-0" data-fill-palette-color="secondary" id="text-0"></path></svg></g></svg></g></svg></g></svg></g><g></g></svg></g></svg></g></svg></g></svg></g><defs></defs></svg><rect width="320" height="360" fill="none" stroke="none" visibility="hidden"></rect></g></svg></g></svg>